<svg width="136" height="136" viewBox="0 0 136 136" fill="none" xmlns="http://www.w3.org/2000/svg">
<rect width="136" height="136" rx="30" fill="white"/>
<path d="M113.333 0H22.6742C16.6649 0.0179412 10.9069 2.41362 6.65828 6.66361C2.4097 10.9136 0.0159397 16.6724 0 22.6818V113.333C0.0219019 119.339 2.41806 125.093 6.66578 129.34C10.9135 133.586 16.6681 135.98 22.6742 136H113.333C119.338 135.978 125.091 133.583 129.337 129.337C133.583 125.091 135.978 119.338 136 113.333V22.6818C135.982 16.6743 133.589 10.9178 129.342 6.66846C125.096 2.41911 119.341 0.021913 113.333 0ZM100.946 95.5233C99.7983 98.2424 98.0082 100.659 95.7121 102.525C92.9968 104.634 89.9057 106.207 86.6031 107.162C82.9021 108.303 78.4912 108.892 73.3853 108.892H36.9419V29.5475H75.4851C82.6076 29.5475 88.3252 31.1563 92.6078 34.4267C96.9055 37.7199 99.0581 42.5991 99.0581 49.2156C99.0581 53.2036 98.0762 56.6402 96.12 59.4651C94.1637 62.2823 91.3615 64.4803 87.7285 66.0211V66.2779C92.5776 67.2976 96.3163 69.5861 98.7862 73.1663C101.256 76.7389 102.51 81.2405 102.51 86.6787C102.51 89.7376 101.921 92.6305 100.81 95.342L100.961 95.5006V95.5233H100.946ZM85.2058 75.9685C82.8719 73.8385 79.6241 72.8037 75.4095 72.8037H50.9075V97.5475H75.4775C79.6619 97.5475 82.9626 96.4598 85.2814 94.2619C87.6077 92.0791 88.786 88.9672 88.786 84.9792C88.7482 81.0668 87.6077 78.038 85.2814 75.9685H85.1756H85.2058ZM81.7994 59.9636C84.0578 58.0678 85.1529 55.3336 85.1529 51.7761C85.1529 47.8032 84.1635 44.9632 82.1544 43.3469C80.1604 41.7305 77.2751 40.8846 73.4986 40.8846H50.8319V62.7733H73.4986C76.7917 62.7808 79.6166 61.8141 81.7994 59.9636Z" fill="#573A7D"/>
</svg>
