<svg width="137" height="136" viewBox="0 0 137 136" fill="none" xmlns="http://www.w3.org/2000/svg">
<rect x="0.5" width="136" height="136" rx="20" fill="#2C2C34"/>
<path d="M85.1618 84.6623C94.3642 84.6623 101.824 77.2023 101.824 68C101.824 58.7976 94.3642 51.3377 85.1618 51.3377C75.9595 51.3377 68.4995 58.7976 68.4995 68C68.4995 77.2023 75.9595 84.6623 85.1618 84.6623Z" fill="#1ABCFE"/>
<path d="M35.1753 68.0001C35.1753 58.7977 42.6352 51.3378 51.8376 51.3378H68.4998V84.6622H51.8376C42.6353 84.6622 35.1753 77.2023 35.1753 68.0001Z" fill="#A259FF"/>
<path d="M35.1753 101.325C35.1753 92.1222 42.6352 84.6623 51.8376 84.6623H68.4998V101.325C68.4998 110.527 61.0398 117.987 51.8376 117.987C42.6352 117.987 35.1753 110.527 35.1753 101.325Z" fill="#0ACF83"/>
<path d="M35.1753 34.6756C35.1753 25.4732 42.6352 18.0132 51.8376 18.0132H68.4998V51.3377H51.8376C42.6353 51.3377 35.1753 43.8778 35.1753 34.6756Z" fill="#F24E1E"/>
<path d="M68.4995 18.0132H85.1618C94.3642 18.0132 101.824 25.4732 101.824 34.6756C101.824 43.8778 94.3642 51.3377 85.1618 51.3377H68.4995V18.0132Z" fill="#FF7262"/>
</svg>
