<svg width="181" height="181" viewBox="0 0 181 181" fill="none" xmlns="http://www.w3.org/2000/svg">
<g clip-path="url(#clip0_1327_367)">
<path d="M0 0H181V181H0V0ZM166.168 137.831C164.851 129.576 159.471 122.638 143.523 116.162C137.972 113.557 131.808 111.757 129.958 107.574C129.274 105.081 129.174 103.733 129.616 102.255C130.752 97.3881 136.524 95.93 141.049 97.2774C143.996 98.1824 146.711 100.445 148.41 104.075C156.203 98.9768 156.203 98.9768 161.643 95.5881C159.602 92.4307 158.586 91.0531 157.229 89.6956C152.472 84.3862 146.137 81.6712 135.851 81.9025L130.541 82.5762C125.443 83.8231 120.576 86.5482 117.64 90.1581C109.042 99.8919 111.526 116.856 121.934 123.884C132.221 131.577 147.284 133.266 149.204 140.506C151.014 149.335 142.648 152.161 134.372 151.145C128.269 149.777 124.87 146.731 121.139 141.069L107.343 148.993C108.922 152.603 110.732 154.192 113.447 157.359C126.569 170.592 159.381 169.919 165.263 149.777C165.474 149.104 167.073 144.468 165.826 137.339L166.168 137.831ZM98.4238 83.1896H81.4701C81.4701 97.8003 81.3997 112.331 81.3997 126.971C81.3997 136.263 81.8723 144.79 80.3539 147.414C77.8702 152.613 71.4447 151.949 68.5387 151.024C65.5522 149.556 64.0338 147.515 62.2741 144.579C61.8014 143.794 61.4495 143.111 61.3188 143.111L47.5628 151.598C49.8655 156.354 53.2241 160.436 57.558 163.031C64.0036 166.882 72.6614 168.129 81.7316 166.098C87.6442 164.388 92.7424 160.879 95.387 155.449C99.2483 148.44 98.4238 139.833 98.3936 130.219C98.4741 114.724 98.3936 99.2182 98.3936 83.6119L98.4238 83.1896Z" fill="#FFE600"/>
</g>
<defs>
<clipPath id="clip0_1327_367">
<rect width="181" height="181" rx="10" fill="white"/>
</clipPath>
</defs>
</svg>
