<svg width="137" height="136" viewBox="0 0 137 136" fill="none" xmlns="http://www.w3.org/2000/svg">
<path d="M50.2719 65.9697H82.947C82.947 65.9697 101.308 66.2656 101.308 48.1339V18.147C101.308 18.147 104.094 0 68.0213 0C33.489 0 35.6406 15.0504 35.6406 15.0504L35.6859 30.6472H68.6252V35.33H22.6023C22.6023 35.33 0.504395 32.8103 0.504395 67.8291C0.504395 102.848 19.7938 101.603 19.7938 101.603H31.2996V85.3537C31.2996 85.3537 30.6729 65.9697 50.2719 65.9697ZM49.8492 22.4048C48.2774 22.4048 46.7699 21.7771 45.6585 20.6598C44.547 19.5424 43.9227 18.027 43.9227 16.4469C43.9227 14.8667 44.547 13.3513 45.6585 12.234C46.7699 11.1167 48.2774 10.489 49.8492 10.489C51.421 10.489 52.9284 11.1167 54.0398 12.234C55.1513 13.3513 55.7757 14.8667 55.7757 16.4469C55.7757 18.027 55.1513 19.5424 54.0398 20.6598C52.9284 21.7771 51.421 22.4048 49.8492 22.4048Z" fill="#396F9E"/>
<path d="M117.215 34.3967H105.71V50.6462C105.71 50.6462 106.336 70.0303 86.7371 70.0303H54.0621C54.0621 70.0303 35.7012 69.7267 35.7012 87.8661V117.853C35.7012 117.853 32.9154 136 68.9878 136C103.513 136 101.361 120.95 101.361 120.95L101.316 105.36H68.3763V100.678H114.407C114.407 100.678 136.505 103.197 136.505 68.1784C136.505 33.1596 117.215 34.3967 117.215 34.3967V34.3967ZM87.1599 113.603C88.7317 113.603 90.2392 114.23 91.3506 115.348C92.462 116.465 93.0864 117.981 93.0864 119.561C93.0864 121.141 92.462 122.656 91.3506 123.774C90.2392 124.891 88.7317 125.519 87.1599 125.519C85.5881 125.519 84.0807 124.891 82.9692 123.774C81.8578 122.656 81.2334 121.141 81.2334 119.561C81.2334 117.981 81.8578 116.465 82.9692 115.348C84.0807 114.23 85.5881 113.603 87.1599 113.603V113.603Z" fill="#FFD140"/>
</svg>
