<svg width="225" height="136" viewBox="0 0 225 136" fill="none" xmlns="http://www.w3.org/2000/svg">
<path d="M185.625 39.8354C177.188 36.9138 169.741 31.6607 164.138 24.6785C157.962 16.8991 150.098 10.643 141.148 6.38876C132.198 2.13451 122.399 -0.00514453 112.5 0.133467C99.1841 -0.81468 86.0016 3.31465 75.5776 11.6991C65.1536 20.0836 58.253 32.108 56.25 45.3778C60.1951 38.741 66.1326 33.5336 73.2082 30.5051C80.2837 27.4766 88.1325 26.783 95.625 28.5243C104.048 31.5309 111.483 36.8145 117.112 43.7943C123.322 51.5115 131.201 57.703 140.149 61.8975C149.097 66.0921 158.879 68.1792 168.75 68C182.066 68.9481 195.248 64.8188 205.672 56.4343C216.096 48.0499 222.997 36.0254 225 22.7556C221.127 29.4719 215.208 34.7579 208.118 37.8333C201.028 40.9088 193.142 41.6107 185.625 39.8354ZM39.375 96.1646C47.8119 99.0862 55.2591 104.339 60.8625 111.321C67.0382 119.101 74.9018 125.357 83.8519 129.611C92.8019 133.865 102.601 136.005 112.5 135.867C125.816 136.815 138.998 132.685 149.422 124.301C159.846 115.916 166.747 103.892 168.75 90.6222C164.805 97.259 158.867 102.466 151.792 105.495C144.716 108.523 136.867 109.217 129.375 107.476C120.952 104.469 113.517 99.1855 107.888 92.2057C101.661 84.5076 93.7794 78.3297 84.8352 74.137C75.891 69.9442 66.1174 67.8459 56.25 68C42.9341 67.0519 29.7516 71.1812 19.3276 79.5657C8.90356 87.9501 2.00297 99.9746 0 113.244C3.87345 106.528 9.79209 101.242 16.8821 98.1667C23.9722 95.0912 31.8579 94.3893 39.375 96.1646Z" fill="#38BDF8"/>
</svg>
