<svg width="137" height="136" viewBox="0 0 137 136" fill="none" xmlns="http://www.w3.org/2000/svg">
<rect x="0.5" width="136" height="136" rx="68" fill="white"/>
<path d="M122.159 38.6716C127.075 47.6642 129.646 57.7511 129.632 68C129.635 78.698 126.829 89.2093 121.494 98.4827C116.16 107.756 108.485 115.466 99.236 120.843L117.909 66.8576C121.397 58.14 122.56 51.1564 122.56 44.9684C122.562 42.863 122.428 40.7597 122.159 38.6716M76.932 39.2632C79.2641 39.1485 81.5912 38.9489 83.9088 38.6648C87.2068 38.2364 86.8192 33.3948 83.528 33.5716C83.528 33.5716 73.5796 34.3332 67.208 34.3332C61.1764 34.3332 51.058 33.4832 51.058 33.4832C47.7464 33.32 47.318 38.3316 50.6432 38.5016C50.6432 38.5016 53.6964 38.8552 57.0216 39.0116L66.5348 65.11L53.1048 105.223L30.8416 39.1C33.1769 38.9826 35.5081 38.7944 37.832 38.5356C41.1436 38.1072 40.756 33.2656 37.458 33.456C37.458 33.456 27.564 34.238 21.172 34.238C20.0364 34.238 18.69 34.1904 17.262 34.1496C28.3324 17.85 47.1616 6.8816 68.5 6.8816C84.4188 6.8816 98.9028 12.9608 109.783 22.9296C109.524 22.916 109.266 22.8752 108.987 22.8752C102.983 22.8752 98.7192 28.1112 98.7192 33.728C98.7192 38.7668 101.623 43.0372 104.724 48.0624C107.056 52.1492 109.769 57.3784 109.769 64.9332C109.769 70.1216 107.763 76.2348 105.111 84.6464L99.0184 104.958L76.9184 39.168L76.932 39.2632V39.2632ZM68.5 129.105C62.6539 129.111 56.8372 128.277 51.228 126.63L69.5676 73.3312L88.356 124.821C88.4988 125.12 88.6416 125.399 88.798 125.664C82.2751 127.951 75.4124 129.119 68.5 129.118M7.368 68C7.35809 59.4283 9.161 50.9514 12.6584 43.1256L41.81 123.019C31.4839 118.005 22.7775 110.186 16.6867 100.456C10.5958 90.7266 7.36647 79.4789 7.368 68M68.5 0C31.0116 0 0.5 30.5116 0.5 68C0.5 105.488 31.0116 136 68.5 136C105.988 136 136.5 105.488 136.5 68C136.5 30.5116 105.988 0 68.5 0" fill="#3B6EBA"/>
</svg>
