<svg width="30" height="30" viewBox="0 0 30 30" fill="none" xmlns="http://www.w3.org/2000/svg">
<path d="M29.9653 8.54997C29.9578 8.52185 29.9438 8.49747 29.9334 8.47029C29.9158 8.41975 29.8938 8.37082 29.8678 8.32403C29.8214 8.25673 29.7707 8.19253 29.7159 8.13185C29.6897 8.1078 29.6622 8.08527 29.6334 8.06435C29.6087 8.04172 29.5827 8.02044 29.5556 8.0006L29.5144 7.98185L29.4816 7.95935L23.8566 5.14685C23.7264 5.08182 23.583 5.04797 23.4375 5.04797C23.292 5.04797 23.1486 5.08182 23.0184 5.14685L17.3934 7.95935L17.3606 7.98185L17.3194 8.0006C17.2923 8.02044 17.2663 8.04172 17.2416 8.06435C17.1722 8.11222 17.1126 8.17302 17.0663 8.24341C17.0448 8.26919 17.0248 8.29611 17.0062 8.32403C16.9806 8.37085 16.9589 8.41978 16.9416 8.47029C16.9322 8.49747 16.9172 8.52185 16.9097 8.54997C16.887 8.63086 16.8754 8.71442 16.875 8.79841V13.844L13.125 15.719V5.04841C13.1246 4.96442 13.113 4.88086 13.0903 4.79997C13.0828 4.77185 13.0687 4.74747 13.0584 4.72029C13.0408 4.66975 13.0188 4.62082 12.9928 4.57404C12.9746 4.54613 12.9549 4.51922 12.9337 4.49341C12.8874 4.42302 12.8278 4.36222 12.7584 4.31435C12.7337 4.29172 12.7077 4.27044 12.6806 4.2506L12.6394 4.23185L12.6066 4.20935L6.98156 1.39685C6.85144 1.33182 6.70797 1.29797 6.5625 1.29797C6.41703 1.29797 6.27356 1.33182 6.14344 1.39685L0.518437 4.20935L0.485625 4.23185L0.444375 4.2506C0.417315 4.27044 0.39134 4.29172 0.366563 4.31435C0.337805 4.33527 0.31026 4.3578 0.284063 4.38185C0.249965 4.41655 0.218621 4.45385 0.190312 4.49341C0.169205 4.51922 0.14949 4.54613 0.13125 4.57404C0.105561 4.62085 0.0839202 4.66978 0.0665625 4.72029C0.0571875 4.74747 0.0421875 4.77185 0.0346875 4.79997C0.0120481 4.88086 0.000381177 4.96442 0 5.04841L0 22.8609C9.29518e-05 23.035 0.0486404 23.2056 0.140205 23.3536C0.23177 23.5016 0.362737 23.6212 0.518437 23.699L6.14344 26.5115L11.7684 29.324C11.7816 29.3306 11.7966 29.3287 11.8116 29.3343C11.9284 29.3925 12.057 29.4227 12.1875 29.4227C12.318 29.4227 12.4466 29.3925 12.5634 29.3343C12.5775 29.3287 12.5934 29.3306 12.6066 29.325L23.8566 23.7C24.0124 23.6221 24.1435 23.5023 24.235 23.3541C24.3266 23.2059 24.3751 23.0351 24.375 22.8609V17.8153L29.4816 15.2615C29.6373 15.1837 29.7682 15.0641 29.8598 14.9161C29.9514 14.7681 29.9999 14.5975 30 14.4234V8.79841C29.9996 8.71442 29.988 8.63086 29.9653 8.54997ZM8.65875 20.0484L12.6066 18.074H12.6075L17.8125 15.4715L21.3412 17.2359L12.1875 21.8128L8.65875 20.0484ZM22.5 12.1903V15.719L18.75 13.844V10.3153L22.5 12.1903ZM23.4375 7.03404L26.9662 8.79841L23.4375 10.5628L19.9088 8.79841L23.4375 7.03404ZM7.5 18.5315V8.44029L11.25 6.56529V16.6565L7.5 18.5315ZM6.5625 3.28404L10.0912 5.04841L6.5625 6.81279L3.03375 5.04841L6.5625 3.28404ZM1.875 6.56529L5.625 8.44029V24.1565L1.875 22.2815V6.56529ZM7.5 21.5653L11.25 23.4403V26.969L7.5 25.094V21.5653ZM22.5 22.2815L13.125 26.969V23.4403L22.5 18.7528V22.2815ZM28.125 13.844L24.375 15.719V12.1903L28.125 10.3153V13.844Z" fill="#FF5252"/>
</svg>
