<svg width="30" height="30" viewBox="0 0 30 30" fill="none" xmlns="http://www.w3.org/2000/svg">
<path d="M0 15C0 19.3578 6.71578 22.8907 15 22.8907C23.2842 22.8907 30 19.3578 30 15C30 10.6423 23.284 7.10931 15 7.10931C6.71602 7.10931 0 10.6423 0 15Z" fill="url(#paint0_radial_4436_2)"/>
<path d="M15 22.3048C22.9605 22.3048 29.4141 19.0341 29.4141 15C29.4141 10.9655 22.9605 7.69525 15 7.69525C7.03945 7.69525 0.585938 10.9655 0.585938 15C0.585938 19.0341 7.03945 22.3048 15 22.3048Z" fill="#777BB3"/>
<path d="M8.14951 15.9056C8.80412 15.9056 9.29255 15.7849 9.60169 15.547C9.90779 15.3113 10.119 14.9032 10.2298 14.3342C10.3329 13.8021 10.2936 13.4309 10.1126 13.2302C9.92794 13.0254 9.52833 12.9216 8.92505 12.9216H7.8788L7.29919 15.9056H8.14951ZM4.72787 19.5813C4.70386 19.5813 4.68016 19.576 4.65847 19.5657C4.63677 19.5554 4.61762 19.5405 4.60239 19.5219C4.58715 19.5034 4.57621 19.4817 4.57035 19.4584C4.56449 19.4351 4.56386 19.4108 4.56849 19.3873L6.10529 11.4799C6.11255 11.443 6.1324 11.4097 6.16146 11.3857C6.19052 11.3617 6.22699 11.3486 6.26466 11.3484H9.57732C10.6184 11.3484 11.3933 11.6311 11.8805 12.1887C12.3699 12.7488 12.5213 13.5326 12.3298 14.5172C12.2518 14.9182 12.1177 15.2906 11.9314 15.6244C11.7375 15.9677 11.49 16.2779 11.1983 16.5431C10.8394 16.8788 10.4333 17.1225 9.99193 17.2657C9.55787 17.4073 9.00005 17.479 8.3349 17.479H6.99333L6.61037 19.4496C6.60313 19.4867 6.58324 19.5201 6.55407 19.5442C6.52491 19.5682 6.48831 19.5813 6.45052 19.5813H4.72787Z" fill="black"/>
<path d="M8.0134 13.0842H8.92536C9.65356 13.0842 9.90645 13.2441 9.99247 13.3395C10.1347 13.4974 10.1619 13.8309 10.07 14.3032C9.96715 14.8322 9.77637 15.2074 9.50286 15.4179C9.22301 15.6335 8.76739 15.7427 8.14981 15.7427H7.49684L8.0134 13.0842ZM9.57762 11.1858H6.2652C6.18966 11.1858 6.11648 11.212 6.05816 11.2601C5.99984 11.3081 5.96002 11.3749 5.94551 11.449L4.40872 19.3566C4.39964 19.4037 4.40108 19.4522 4.41293 19.4987C4.42478 19.5452 4.44674 19.5884 4.47726 19.6255C4.50778 19.6625 4.54609 19.6923 4.58946 19.7128C4.63284 19.7333 4.6802 19.7439 4.72817 19.744H6.45083C6.52636 19.7439 6.59952 19.7176 6.65779 19.6695C6.71606 19.6215 6.75583 19.5547 6.77028 19.4805L7.1277 17.6416H8.33497C9.01747 17.6416 9.59215 17.5671 10.0429 17.4204C10.5062 17.2699 10.9325 17.0147 11.3099 16.6617C11.6138 16.385 11.8716 16.0617 12.0737 15.7038C12.2685 15.3553 12.4086 14.9663 12.4897 14.5481C12.6913 13.5115 12.5275 12.6816 12.0032 12.0816C11.4838 11.487 10.6677 11.1855 9.57762 11.1855V11.1858ZM7.10192 16.068H8.14981C8.84434 16.0682 9.36153 15.9373 9.70137 15.6755C10.0412 15.4139 10.2707 14.9771 10.39 14.3651C10.5037 13.7773 10.4518 13.3626 10.2341 13.121C10.0161 12.8795 9.57989 12.7587 8.92536 12.7587H7.74504L7.10192 16.068ZM9.57786 11.5106C10.5744 11.5106 11.3012 11.7722 11.7582 12.2953C12.2153 12.8184 12.3528 13.5486 12.1707 14.4858C12.0954 14.872 11.9685 15.225 11.7899 15.5447C11.611 15.8647 11.3773 16.1574 11.0889 16.4229C10.7451 16.7448 10.3629 16.9741 9.94231 17.1108C9.52184 17.2477 8.98614 17.316 8.3352 17.3159H6.85958L6.45106 19.4182H4.7284L6.26544 11.5106H9.57786Z" fill="white"/>
<path d="M16.2795 17.479C16.2555 17.479 16.2317 17.4737 16.21 17.4635C16.1883 17.4533 16.1691 17.4383 16.1538 17.4198C16.1385 17.4013 16.1275 17.3796 16.1216 17.3563C16.1157 17.333 16.115 17.3087 16.1196 17.2852L16.7993 13.7864C16.8642 13.4536 16.8483 13.215 16.7548 13.1137C16.6974 13.0521 16.5253 12.9488 16.0165 12.9488H14.7846L13.9301 17.3475C13.9228 17.3845 13.9028 17.4179 13.8736 17.4418C13.8444 17.4658 13.8078 17.4788 13.77 17.4787H12.0614C12.0374 17.4788 12.0137 17.4735 11.992 17.4633C11.9703 17.453 11.9511 17.4382 11.9358 17.4197C11.9205 17.4012 11.9095 17.3795 11.9035 17.3563C11.8976 17.333 11.8968 17.3087 11.9014 17.2852L13.4384 9.37758C13.4457 9.34053 13.4656 9.30717 13.4947 9.28319C13.5239 9.2592 13.5605 9.24609 13.5982 9.24609H15.3068C15.3308 9.24608 15.3545 9.25137 15.3763 9.26158C15.398 9.2718 15.4172 9.28669 15.4325 9.30518C15.4478 9.32368 15.4588 9.34533 15.4647 9.36858C15.4707 9.39183 15.4714 9.41612 15.4669 9.43969L15.0961 11.3484H16.421C17.4305 11.3484 18.1149 11.5261 18.5135 11.8924C18.9197 12.2658 19.0467 12.8627 18.8904 13.6673L18.1753 17.3475C18.168 17.3845 18.1481 17.4178 18.1189 17.4417C18.0898 17.4657 18.0532 17.4788 18.0155 17.4787L16.2795 17.479Z" fill="black"/>
<path d="M15.3071 9.08319H13.5983C13.5227 9.08321 13.4495 9.1095 13.3911 9.15756C13.3328 9.20561 13.293 9.27245 13.2786 9.34663L11.7418 17.254C11.7327 17.3011 11.7341 17.3496 11.7459 17.3962C11.7577 17.4427 11.7797 17.486 11.8102 17.523C11.8407 17.5601 11.8791 17.5899 11.9224 17.6104C11.9658 17.6309 12.0132 17.6416 12.0612 17.6416H13.7701C13.8456 17.6416 13.9188 17.6153 13.9772 17.5673C14.0355 17.5192 14.0753 17.4524 14.0897 17.3782L14.9187 13.1114H16.0161C16.5242 13.1114 16.6311 13.2199 16.6351 13.2248C16.666 13.2576 16.7065 13.4112 16.6395 13.7555L15.9598 17.254C15.9507 17.3011 15.9521 17.3497 15.964 17.3962C15.9758 17.4427 15.9978 17.4861 16.0283 17.5231C16.0589 17.5602 16.0972 17.59 16.1407 17.6105C16.1841 17.631 16.2315 17.6416 16.2795 17.6416H18.0158C18.0913 17.6416 18.1644 17.6152 18.2227 17.5672C18.281 17.5191 18.3208 17.4523 18.3352 17.3782L19.0503 13.6985C19.2179 12.8346 19.0744 12.1868 18.6237 11.7726C18.1934 11.3775 17.4729 11.1855 16.4211 11.1855H15.2937L15.6268 9.47108C15.6359 9.42393 15.6345 9.37533 15.6227 9.32877C15.6109 9.28221 15.5889 9.23884 15.5584 9.20177C15.5278 9.16471 15.4894 9.13485 15.446 9.11435C15.4026 9.09385 15.3551 9.08321 15.3071 9.08319ZM15.3071 9.40897L14.8986 11.5108H16.4211C17.379 11.5108 18.0397 11.678 18.4032 12.0124C18.7669 12.3465 18.8761 12.8879 18.7308 13.6366L18.0155 17.3161H16.2795L16.9594 13.8173C17.0368 13.4194 17.0083 13.148 16.8739 13.0031C16.7395 12.8584 16.4537 12.7861 16.0165 12.7861H14.6504L13.7701 17.3158H12.061L13.598 9.40827H15.3071V9.40897Z" fill="white"/>
<path d="M21.5946 15.9056C22.2492 15.9056 22.7379 15.7849 23.0472 15.547C23.3529 15.3113 23.5643 14.9032 23.6751 14.3342C23.7783 13.8021 23.7391 13.4309 23.5579 13.2302C23.3733 13.0254 22.9736 12.9216 22.3704 12.9216H21.3243L20.7443 15.9056H21.5946ZM18.1736 19.5813C18.1496 19.5814 18.1258 19.5761 18.1041 19.5658C18.0823 19.5556 18.0631 19.5407 18.0478 19.5221C18.0326 19.5035 18.0216 19.4818 18.0157 19.4585C18.0098 19.4352 18.0092 19.4109 18.0138 19.3873L19.5506 11.4799C19.5579 11.4429 19.5778 11.4095 19.607 11.3855C19.6361 11.3616 19.6727 11.3484 19.7104 11.3484H23.0229C24.064 11.3484 24.8388 11.6311 25.3258 12.1887C25.8154 12.7488 25.9666 13.5326 25.7751 14.5172C25.7019 14.905 25.5675 15.2787 25.3769 15.6244C25.183 15.9677 24.9355 16.2779 24.6438 16.5431C24.2852 16.8788 23.8786 17.1225 23.4375 17.2657C23.0034 17.4073 22.4456 17.479 21.7802 17.479H20.4389L20.0561 19.4496C20.0489 19.4867 20.029 19.5202 19.9998 19.5442C19.9706 19.5683 19.9339 19.5814 19.8961 19.5813H18.1736Z" fill="black"/>
<path d="M21.4582 13.0842H22.3702C23.0984 13.0842 23.3513 13.2441 23.4371 13.3395C23.58 13.4974 23.6067 13.8309 23.5151 14.3032C23.412 14.8322 23.2212 15.2074 22.9477 15.4179C22.6676 15.6335 22.212 15.7427 21.5946 15.7427H20.9417L21.4582 13.0842ZM23.0224 11.1858H19.71C19.6345 11.1858 19.5614 11.2121 19.5031 11.2601C19.4449 11.3081 19.4051 11.3749 19.3906 11.449L17.8535 19.3566C17.8445 19.4037 17.8459 19.4522 17.8578 19.4987C17.8696 19.5452 17.8916 19.5885 17.9222 19.6256C17.9527 19.6626 17.991 19.6924 18.0344 19.7128C18.0778 19.7333 18.1252 19.744 18.1732 19.744H19.8959C19.9714 19.7439 20.0446 19.7176 20.1028 19.6695C20.1611 19.6215 20.2009 19.5547 20.2153 19.4805L20.5728 17.6416H21.7798C22.4621 17.6416 23.037 17.5671 23.4874 17.4204C23.951 17.2699 24.3774 17.0147 24.7549 16.6615C25.0587 16.3849 25.3165 16.0616 25.5185 15.7038C25.7135 15.3553 25.8532 14.9663 25.9346 14.5481C26.1361 13.5115 25.9725 12.6816 25.448 12.0816C24.9286 11.487 24.1128 11.1855 23.0222 11.1855L23.0224 11.1858ZM20.5467 16.068H21.5944C22.2889 16.0682 22.8063 15.9373 23.1464 15.6755C23.4863 15.4139 23.7157 14.9771 23.8346 14.3651C23.9488 13.7773 23.8968 13.3626 23.6787 13.121C23.4606 12.8795 23.0244 12.7587 22.3702 12.7587H21.1901L20.5467 16.068ZM23.0224 11.5106C24.019 11.5106 24.7458 11.7722 25.2028 12.2953C25.6599 12.8184 25.7973 13.5486 25.6151 14.4858C25.5401 14.872 25.4132 15.225 25.2345 15.5447C25.0557 15.8647 24.822 16.1574 24.5332 16.4229C24.1895 16.7448 23.8073 16.9741 23.3867 17.1108C22.9664 17.2477 22.4307 17.316 21.7798 17.3159H20.3044L19.8954 19.4182H18.1728L19.7098 11.5106H23.0224Z" fill="white"/>
<defs>
<radialGradient id="paint0_radial_4436_2" cx="0" cy="0" r="1" gradientUnits="userSpaceOnUse" gradientTransform="translate(9.00609 9.88338) scale(19.6972)">
<stop stop-color="#AEB2D5"/>
<stop offset="0.3" stop-color="#AEB2D5"/>
<stop offset="0.75" stop-color="#484C89"/>
<stop offset="1" stop-color="#484C89"/>
</radialGradient>
</defs>
</svg>
