<svg width="153" height="136" viewBox="0 0 153 136" fill="none" xmlns="http://www.w3.org/2000/svg">
<path d="M38.2197 1.90213C47.1963 -3.29483 61.3759 2.30274 76.4248 16.9148C91.4663 2.30964 105.64 -3.2873 114.631 1.90213C123.81 7.18974 125.983 21.8717 120.725 42.4373C141.202 48.1789 152.856 57.4047 152.856 67.9734C152.856 78.5349 141.194 87.7583 120.722 93.4998C125.959 114.057 123.799 128.756 114.629 134.036C112.291 135.361 109.642 136.038 106.955 135.998C98.4548 135.998 87.6884 129.99 76.415 119.018C65.1475 129.997 54.3817 135.998 45.8955 135.998C43.2088 136.036 40.5601 135.359 38.2217 134.036C29.0365 128.756 26.8674 114.062 32.125 93.4978C11.6587 87.7555 0.000291172 78.526 0 67.9734C0 57.412 11.6682 48.1867 32.1338 42.4451C26.8652 21.8687 29.0326 7.18328 38.2197 1.90213ZM114.538 95.0486C107.746 96.5596 100.877 97.6425 93.9482 98.2459L93.9316 98.2713L93.9189 98.2722C89.9357 103.953 85.58 109.362 80.8799 114.466C90.8212 124.14 100.221 129.63 106.955 129.631C108.673 129.631 110.186 129.249 111.453 128.523C117.783 124.873 118.906 112.167 114.538 95.0486ZM38.3135 95.0564C33.9612 112.175 35.0762 124.881 41.3984 128.531C47.6978 132.119 59.5022 126.583 71.9785 114.466C67.2769 109.351 62.9096 103.94 58.9043 98.2635H58.9004L58.8945 98.2547C51.9713 97.6422 45.096 96.5742 38.3135 95.0564ZM85.6299 98.8377C82.5324 98.9861 79.4566 99.0652 76.4316 99.0652C73.3923 99.0652 70.3066 98.9878 67.1973 98.8377C70.0884 102.661 73.1648 106.346 76.4131 109.88C79.6592 106.347 82.7345 102.662 85.6299 98.8377ZM90.4277 43.784C81.1083 43.0662 71.7471 43.0662 62.4277 43.784C57.1499 51.4748 52.4728 59.561 48.4395 67.9715L48.4404 67.9734L48.4395 67.9744C52.5005 76.3704 57.1763 84.4553 62.4277 92.1629C71.8577 92.873 81.0054 92.873 90.4277 92.1629C95.6877 84.4603 100.364 76.3743 104.416 67.9734C100.378 59.565 95.7013 51.4779 90.4277 43.784ZM107.816 75.4383C105.007 80.8894 101.933 86.2001 98.6064 91.3523C103.366 90.7674 108.096 89.9542 112.778 88.9119C111.34 84.3433 109.684 79.8471 107.816 75.4383ZM45.042 75.4353C43.1694 79.8516 41.5107 84.3538 40.0781 88.9285C44.56 89.9309 49.2927 90.7393 54.2324 91.3426C52.5749 88.7723 50.9754 86.1648 49.4395 83.5193C47.9105 80.8592 46.4458 78.1629 45.042 75.4353ZM33.8633 48.5633C16.8438 53.3584 6.39062 60.6739 6.39062 67.9734C6.391 75.2575 16.8366 82.5796 33.8633 87.367C35.9476 80.7399 38.4673 74.2579 41.3838 67.9744V67.9715C38.4462 61.6774 35.9336 55.1933 33.8633 48.5633ZM118.992 48.5633C116.91 55.1901 114.393 61.6721 111.458 67.9676L111.464 67.9803L111.461 67.9851C114.513 74.5933 117.054 81.0944 118.992 87.367C136.019 82.5796 146.472 75.2576 146.473 67.9734C146.473 60.6738 136.027 53.366 118.992 48.5633ZM76.4287 54.3738C83.9561 54.3738 90.0586 60.4763 90.0586 68.0037C90.0585 75.531 83.956 81.6326 76.4287 81.6326C68.9015 81.6324 62.7999 75.5309 62.7998 68.0037C62.7998 60.4764 68.9015 54.374 76.4287 54.3738ZM98.5781 44.5623C101.909 49.7276 104.99 55.0495 107.811 60.5105C109.681 56.0966 111.337 51.5917 112.777 47.0154C108.086 45.9683 103.347 45.1503 98.5781 44.5623ZM54.252 44.575C49.4919 45.164 44.7621 45.9798 40.0791 47.0222C41.5147 51.5936 43.1703 56.0921 45.0391 60.5027C46.4426 57.7752 47.9077 55.0795 49.4395 52.4197C50.9671 49.7958 52.5779 47.1725 54.252 44.575ZM45.8936 6.31619C44.1834 6.31624 42.6715 6.68971 41.3965 7.42264C35.0742 11.0648 33.9593 23.748 38.3115 40.867C45.1148 39.3628 51.9796 38.2856 58.8975 37.6824C62.9023 32.0021 67.271 26.5873 71.9766 21.4724C62.0275 11.7983 52.6357 6.31619 45.8936 6.31619ZM111.455 7.41483C105.163 3.77266 93.3202 9.34717 80.8818 21.4724C85.5853 26.5882 89.9528 31.994 93.9385 37.6824C101.223 38.3314 108.125 39.4239 114.539 40.867C118.899 23.7482 117.785 11.0647 111.455 7.41483ZM76.4336 26.0711C73.189 29.5982 70.1155 33.2781 67.2227 37.0974C73.3618 36.8029 79.5113 36.8031 85.6504 37.0984C82.7574 33.2772 79.6815 29.5974 76.4336 26.0711Z" fill="#38BDF8"/>
</svg>
